<svg width="70" height="70" viewBox="0 0 70 70" fill="none" xmlns="http://www.w3.org/2000/svg">
<path d="M15.6333 39.8125L9.18751 50.6917C8.91045 51.1715 8.76488 51.716 8.76547 52.2701C8.76607 52.8242 8.91282 53.3683 9.19092 53.8476C9.46901 54.3269 9.8686 54.7243 10.3494 54.9998C10.8301 55.2753 11.3751 55.4191 11.9292 55.4167H32.0833" stroke="black" stroke-width="5.83333" stroke-linecap="round" stroke-linejoin="round"/>
<path d="M46.6667 55.4167L58.1292 55.5625C58.6818 55.5636 59.2249 55.418 59.7028 55.1404C60.1807 54.8629 60.5763 54.4634 60.8493 53.9828C61.1222 53.5022 61.2626 52.9578 61.2561 52.4052C61.2497 51.8526 61.0966 51.3116 60.8125 50.8375L50.9542 33.7167" stroke="#434984" stroke-width="5.83333" stroke-linecap="round" stroke-linejoin="round"/>
<path d="M44.0125 21.3792L37.9167 10.325C37.6401 9.84659 37.2425 9.44934 36.7638 9.17316C36.2851 8.89698 35.7422 8.75159 35.1896 8.75159C34.6369 8.75159 34.094 8.89698 33.6153 9.17316C33.1367 9.44934 32.7391 9.84659 32.4625 10.325L22.3708 27.825" stroke="black" stroke-width="5.83333" stroke-linecap="round" stroke-linejoin="round"/>
<path d="M27.125 49.5834L32.0833 55.4167L26.25 61.25" stroke="black" stroke-width="5.83333" stroke-linecap="round" stroke-linejoin="round"/>
<path d="M48.1833 40.6L50.75 33.3959L58.7125 35.525" stroke="#434984" stroke-width="5.83333" stroke-linecap="round" stroke-linejoin="round"/>
<path d="M29.8083 26.425L22.2833 27.7959L20.1542 19.8334" stroke="black" stroke-width="5.83333" stroke-linecap="round" stroke-linejoin="round"/>
</svg>
