<svg width="70" height="70" viewBox="0 0 70 70" fill="none" xmlns="http://www.w3.org/2000/svg">
<g clip-path="url(#clip0_4_232)">
<path d="M55.5723 21.1952H50.1799C43.6922 21.1952 38.0957 25.0817 35.5949 30.6487C33.0943 25.0818 27.4975 21.1952 21.0098 21.1952H15.6175C14.8474 21.1952 14.2231 21.8196 14.2231 22.5896V27.982C14.2231 36.7932 21.3914 43.9615 30.2025 43.9615H34.2005V52.3103C34.2006 53.0803 34.8249 53.7047 35.595 53.7047C36.3651 53.7047 36.9894 53.0803 36.9894 52.3103V43.9615H40.9873C49.7984 43.9615 56.9667 36.7932 56.9667 27.982V22.5896C56.9667 21.8196 56.3425 21.1952 55.5723 21.1952ZM34.2005 39.2005L22.9008 27.9008C22.3562 27.3564 21.4733 27.3564 20.9286 27.9008C20.3841 28.4454 20.3841 29.3283 20.9286 29.873L32.2284 41.1727H30.2024C22.9292 41.1727 17.012 35.2555 17.012 27.9822V23.9841H21.01C28.2833 23.9841 34.2005 29.9013 34.2005 37.1746V39.2005ZM54.1779 27.982C54.1779 35.2553 48.2608 41.1725 40.9875 41.1725H38.9616L46.4475 33.6866C46.992 33.1421 46.992 32.2592 46.4475 31.7145C45.9029 31.1701 45.02 31.1701 44.4753 31.7145L36.9895 39.2002V37.1743C36.9895 29.9012 42.9067 23.984 50.1799 23.984H54.1779V27.982Z" fill="#434984"/>
<path d="M50.2611 27.9007C49.7165 27.3563 48.8336 27.3563 48.2889 27.9007L47.741 28.4487C47.1964 28.9933 47.1964 29.8762 47.741 30.4209C48.0134 30.6931 48.3703 30.8293 48.7271 30.8293C49.0839 30.8293 49.4409 30.6931 49.7131 30.4209L50.2611 29.8729C50.8056 29.3284 50.8056 28.4454 50.2611 27.9007Z" fill="#434984"/>
<path d="M68.6056 33.6056C67.8355 33.6056 67.2112 34.23 67.2112 35C67.2112 52.7613 52.7614 67.2112 35 67.2112C27.1254 67.2112 19.6834 64.403 13.8139 59.2631H18.2669C19.037 59.2631 19.6613 58.6387 19.6613 57.8687C19.6613 57.0987 19.037 56.4743 18.2669 56.4743H10.7371C9.96694 56.4743 9.34268 57.0987 9.34268 57.8687V65.3986C9.34268 66.1686 9.96694 66.793 10.7371 66.793C11.5072 66.793 12.1315 66.1686 12.1315 65.3986V61.4983C18.4853 66.9983 26.5118 70 35 70C44.3488 70 53.1381 66.3594 59.7488 59.7487C66.3595 53.1381 70 44.349 70 35C70 34.23 69.3757 33.6056 68.6056 33.6056Z" fill="black"/>
<path d="M59.9602 3.76496C59.1901 3.76496 58.5658 4.38936 58.5658 5.15936V9.12256C52.1071 3.22807 43.8018 0 35 0C25.6512 0 16.8619 3.64055 10.2512 10.2514C3.64055 16.8619 0 25.651 0 35C0 35.77 0.624258 36.3944 1.39439 36.3944C2.16453 36.3944 2.78879 35.77 2.78879 35C2.78879 17.2387 17.2386 2.78879 35 2.78879C43.1549 2.78879 50.8458 5.80043 56.8065 11.2947H52.4303C51.6601 11.2947 51.0359 11.9191 51.0359 12.6891C51.0359 13.4591 51.6601 14.0835 52.4303 14.0835H59.9602C60.7303 14.0835 61.3546 13.4591 61.3546 12.6891V5.15936C61.3546 4.38936 60.7303 3.76496 59.9602 3.76496Z" fill="black"/>
</g>
<defs>
<clipPath id="clip0_4_232">
<rect width="70" height="70" fill="white"/>
</clipPath>
</defs>
</svg>
