<svg width="70" height="70" viewBox="0 0 70 70" fill="none" xmlns="http://www.w3.org/2000/svg">
<path d="M58.8794 30.3961L58.0023 21.0458L55.0068 18.7196L56.2415 14.2687L54.981 8.84934L51.0109 7.33545L47.723 4.51526L45.7216 4.35291L40.2699 9.60964L37.3135 9.13526L38.1516 7.11441L32.609 3.83303L32.0697 1.59788L25.5193 0.538452L26.2406 8.36203L28.031 9.95857L24.811 9.94753L24.4276 12.1178L24.6419 13.0079L21.4386 11.078L17.5205 11.4224L16.3313 13.3264L17.0006 17.7515L15.831 24.2948L12.0491 27.8296L9.48903 27.8686L10.8406 31.748L9.17053 37.1476L11.2304 41.4298L9.86596 42.3395L10.6847 48.6295L13.3942 51.6379L16.5652 52.1772L21.9391 53.7885L18.9891 57.2713L16.9098 65.7575L21.9781 66.7453L25.3766 66.1863L29.6716 66.8815L33.9406 69.4615L35.2921 67.4146L39.8082 68.5451L42.011 66.8037L48.9898 65.9459L48.7623 61.8393L54.4934 57.9861L54.9872 55.7442L48.7362 50.8967L44.793 43.1577L47.5319 43.1779L57.1642 36.4783L59.6465 36.9527L60.8292 33.0346L58.8794 30.3961Z" fill="#14130A"/>
<g clip-path="url(#clip0_4_114)">
<path d="M61.6052 52.64C61.2879 53.8533 60.6812 54.908 59.7852 55.804L47.8292 68.18L35.8732 55.804C34.9772 54.908 34.3705 53.8533 34.0532 52.64C33.7359 51.4267 33.7359 50.2227 34.0532 49.028C34.3705 47.8333 34.9772 46.788 35.8732 45.892C36.7692 44.996 37.8145 44.3893 39.0092 44.072C40.2039 43.7547 41.4172 43.7547 42.6492 44.072C43.8812 44.3893 44.9265 44.996 45.7852 45.892L47.8292 48.356L49.8732 45.892C50.7692 44.996 51.8145 44.3893 53.0092 44.072C54.2039 43.7547 55.4079 43.7547 56.6212 44.072C57.8345 44.3893 58.8892 44.996 59.7852 45.892C60.6812 46.788 61.2879 47.8333 61.6052 49.028C61.9225 50.2227 61.9225 51.4267 61.6052 52.64Z" fill="#434984"/>
</g>
<defs>
<clipPath id="clip0_4_114">
<rect width="28" height="28" fill="white" transform="matrix(-1 0 0 1 61.8292 42)"/>
</clipPath>
</defs>
</svg>
