<svg width="70" height="70" viewBox="0 0 70 70" fill="none" xmlns="http://www.w3.org/2000/svg">
<path d="M11.6667 49.5833H5.83334V20.4166H43.75V49.5833H23.3333" stroke="black" stroke-width="1.75" stroke-linecap="square"/>
<path d="M58.3333 49.5833H64.1667V36.6205L58.3333 26.25H43.75V49.5833H46.6667" stroke="black" stroke-width="1.75" stroke-linecap="square"/>
<path d="M17.5 55.4167C20.7217 55.4167 23.3334 52.805 23.3334 49.5833C23.3334 46.3617 20.7217 43.75 17.5 43.75C14.2784 43.75 11.6667 46.3617 11.6667 49.5833C11.6667 52.805 14.2784 55.4167 17.5 55.4167Z" stroke="black" stroke-width="1.75" stroke-linecap="square"/>
<path d="M52.5 55.4167C55.7217 55.4167 58.3333 52.805 58.3333 49.5833C58.3333 46.3617 55.7217 43.75 52.5 43.75C49.2783 43.75 46.6667 46.3617 46.6667 49.5833C46.6667 52.805 49.2783 55.4167 52.5 55.4167Z" stroke="black" stroke-width="1.75" stroke-linecap="square"/>
<g clip-path="url(#clip0_4_217)">
<path d="M35.0641 42.6562L34.6562 26L18 26.4079L18.4079 43.0641L35.0641 42.6562Z" fill="white" fill-opacity="0.01"/>
<path d="M19.9985 37.1224C19.9985 37.1224 19.541 32.6199 22.2575 30.1229C24.9741 27.6259 33.3022 27.4219 33.3022 27.4219C33.3022 27.4219 33.8531 35.7415 31.8391 38.5685C29.825 41.3955 23.909 40.846 23.909 40.846" stroke="#434984" stroke-width="1.38843" stroke-linecap="round" stroke-linejoin="round"/>
<path d="M19.7619 41.642C19.7619 41.642 22.5986 37.691 25.161 35.26C27.7235 32.829 30.2811 31.6625 30.2811 31.6625" stroke="#434984" stroke-width="1.38843" stroke-linecap="round" stroke-linejoin="round"/>
<path d="M25.161 35.26L29.6806 35.4965" stroke="#434984" stroke-width="1.38843" stroke-linecap="round" stroke-linejoin="round"/>
<path d="M25.161 35.26L25.4231 31.7815" stroke="#434984" stroke-width="1.38843" stroke-linecap="round" stroke-linejoin="round"/>
</g>
<defs>
<clipPath id="clip0_4_217">
<rect width="16.6612" height="16.6612" fill="white" transform="translate(34.6562 26) rotate(88.5972)"/>
</clipPath>
</defs>
</svg>
