<svg width="1440" height="1477" viewBox="0 0 1440 1477" fill="none" xmlns="http://www.w3.org/2000/svg">
<g clip-path="url(#clip0_4_338)">
<mask id="mask0_4_338" style="mask-type:luminance" maskUnits="userSpaceOnUse" x="-720" y="884" width="2459" height="956">
<path d="M1738.29 884H-720V1840H1738.29V884Z" fill="white"/>
</mask>
<g mask="url(#mask0_4_338)">
<path d="M186.663 1097.96C186.663 1098.9 187.038 1099.8 187.704 1100.47C188.369 1101.13 189.273 1101.51 190.214 1101.51C191.156 1101.51 192.059 1101.13 192.725 1100.47C193.391 1099.8 193.765 1098.9 193.765 1097.96C193.765 1097.01 193.391 1096.11 192.725 1095.45C192.059 1094.78 191.156 1094.41 190.214 1094.41C189.273 1094.41 188.369 1094.78 187.704 1095.45C187.038 1096.11 186.663 1097.01 186.663 1097.96Z" fill="#747BB9"/>
<path d="M1267.06 967.087C1264.91 965.506 1262.21 964.847 1259.57 965.254C1256.93 965.66 1254.56 967.099 1252.98 969.255C1251.4 971.41 1250.74 974.104 1251.15 976.746C1251.55 979.387 1252.99 981.758 1255.15 983.339L1267.06 967.087Z" fill="#434984"/>
<path d="M812.075 947.301C817.027 936.788 819.855 925.401 820.395 913.793C820.935 902.184 819.178 890.584 815.224 879.656C811.269 868.729 805.196 858.69 797.352 850.116C789.508 841.542 780.049 834.601 769.516 829.692C758.983 824.783 747.584 822.002 735.973 821.509C724.363 821.017 712.77 822.822 701.859 826.821C690.948 830.82 680.934 836.934 672.392 844.813C663.85 852.692 656.948 862.18 652.082 872.733L812.075 947.301Z" stroke="#434984" stroke-width="1.70714"/>
<path d="M800.176 963.519H871.928V1035.27H800.176V963.519Z" stroke="#434984" stroke-width="1.70714"/>
<path d="M154.876 1225.8C154.876 1233.74 158.029 1241.35 163.642 1246.97C169.254 1252.58 176.866 1255.73 184.803 1255.73C192.74 1255.73 200.351 1252.58 205.964 1246.97C211.576 1241.35 214.729 1233.74 214.729 1225.8C214.729 1217.87 211.576 1210.26 205.964 1204.64C200.351 1199.03 192.74 1195.88 184.803 1195.88C176.866 1195.88 169.254 1199.03 163.642 1204.64C158.029 1210.26 154.876 1217.87 154.876 1225.8Z" fill="#434984"/>
<path d="M481.333 1286.41H500.914V1305.99H481.333V1286.41Z" stroke="#434984" stroke-width="1.70714"/>
<path d="M1135.75 1110.96H1151.17V1118.05H1135.75V1110.96Z" stroke="#434984" stroke-width="1.70714"/>
<path d="M504.004 948.53C515.296 947.674 525.786 942.368 533.165 933.778C540.545 925.189 544.21 914.019 543.354 902.727C542.498 891.435 537.192 880.946 528.602 873.566C520.013 866.187 508.843 862.522 497.551 863.378L504.004 948.53Z" fill="#747BB9"/>
<path d="M395.737 958.363C385.242 965.199 376.205 974.047 369.148 984.395C362.091 994.743 357.155 1006.39 354.622 1018.65C352.09 1030.92 352.013 1043.57 354.396 1055.86C356.778 1068.16 361.573 1079.86 368.503 1090.3C375.434 1100.73 384.362 1109.69 394.773 1116.65C405.184 1123.61 416.872 1128.44 429.161 1130.87C441.449 1133.29 454.096 1133.25 466.371 1130.76C478.646 1128.27 490.305 1123.37 500.675 1116.34L395.737 958.363Z" stroke="#747BB9" stroke-width="1.70714"/>
<path d="M871.262 1046.3C876.662 1051.37 883.014 1055.31 889.951 1057.91C896.887 1060.5 904.27 1061.7 911.671 1061.42C919.072 1061.14 926.344 1059.39 933.065 1056.28C939.787 1053.17 945.824 1048.76 950.826 1043.3C955.829 1037.84 959.698 1031.44 962.208 1024.47C964.719 1017.5 965.821 1010.1 965.452 1002.71C965.082 995.309 963.248 988.059 960.056 981.376C956.863 974.693 952.376 968.71 946.854 963.775L871.262 1046.3Z" fill="#434984"/>
<path d="M709.271 1495.02C720.262 1494.66 731.073 1492.13 741.088 1487.59C751.102 1483.05 760.124 1476.58 767.638 1468.55C775.152 1460.52 781.011 1451.09 784.881 1440.79C788.75 1430.5 790.554 1419.54 790.19 1408.55C789.825 1397.56 787.3 1386.75 782.757 1376.74C778.215 1366.72 771.744 1357.7 763.715 1350.19C755.686 1342.67 746.255 1336.81 735.962 1332.94C725.668 1329.07 714.714 1327.27 703.723 1327.64L709.271 1495.02Z" stroke="#434984" stroke-width="1.70714"/>
<path d="M849.82 1289.65C849.82 1299.53 853.745 1309.01 860.73 1315.99C867.716 1322.98 877.191 1326.9 887.07 1326.9C896.949 1326.9 906.424 1322.98 913.41 1315.99C920.395 1309.01 924.32 1299.53 924.32 1289.65C924.32 1279.77 920.395 1270.3 913.41 1263.31C906.424 1256.33 896.949 1252.4 887.07 1252.4C877.191 1252.4 867.716 1256.33 860.73 1263.31C853.745 1270.3 849.82 1279.77 849.82 1289.65Z" fill="#747BB9"/>
<path d="M148.56 990.031H150.182V991.652H148.56V990.031Z" stroke="#747BB9" stroke-width="1.70714"/>
<path d="M971.027 1040.58H1048.34V1043.82H971.027V1040.58Z" stroke="#747BB9" stroke-width="1.70714"/>
<path d="M-54.3509 1277.99C-54.3509 1292.08 -48.7555 1305.59 -38.7956 1315.55C-28.8357 1325.51 -15.3271 1331.1 -1.2417 1331.1C12.8437 1331.1 26.3523 1325.51 36.3122 1315.55C46.2721 1305.59 51.8675 1292.08 51.8675 1277.99C51.8675 1263.91 46.2721 1250.4 36.3122 1240.44C26.3523 1230.48 12.8437 1224.88 -1.2417 1224.88C-15.3271 1224.88 -28.8357 1230.48 -38.7956 1240.44C-48.7555 1250.4 -54.3509 1263.91 -54.3509 1277.99Z" fill="#747BB9"/>
</g>
</g>
<g clip-path="url(#clip1_4_338)">
<mask id="mask1_4_338" style="mask-type:luminance" maskUnits="userSpaceOnUse" x="-475" y="0" width="2459" height="956">
<path d="M1983.29 0H-475V956H1983.29V0Z" fill="white"/>
</mask>
<g mask="url(#mask1_4_338)">
<path d="M431.663 213.956C431.663 214.898 432.038 215.801 432.704 216.467C433.369 217.133 434.273 217.507 435.214 217.507C436.156 217.507 437.059 217.133 437.725 216.467C438.391 215.801 438.765 214.898 438.765 213.956C438.765 213.015 438.391 212.111 437.725 211.445C437.059 210.779 436.156 210.405 435.214 210.405C434.273 210.405 433.369 210.779 432.704 211.445C432.038 212.111 431.663 213.015 431.663 213.956Z" fill="#747BB9"/>
<path d="M1057.08 63.3009C1062.03 52.7881 1064.85 41.4008 1065.4 29.7926C1065.94 18.1844 1064.18 6.58377 1060.22 -4.34353C1056.27 -15.2708 1050.2 -25.3097 1042.35 -33.8839C1034.51 -42.4581 1025.05 -49.399 1014.52 -54.308C1003.98 -59.2171 992.584 -61.9978 980.974 -62.4906C969.363 -62.9833 957.77 -61.1784 946.859 -57.1793C935.948 -53.1803 925.934 -47.0659 917.392 -39.1871C908.85 -31.3083 901.948 -21.8201 897.082 -11.2671L1057.08 63.3009Z" stroke="#434984" stroke-width="1.70714"/>
<path d="M1045.18 79.5187H1116.93V151.27H1045.18V79.5187Z" stroke="#434984" stroke-width="1.70714"/>
<path d="M75.5364 655.27H152.648V732.381H75.5364V655.27Z" fill="#747BB9"/>
<path d="M399.876 341.804C399.876 349.741 403.029 357.353 408.642 362.965C414.254 368.577 421.866 371.73 429.803 371.73C437.74 371.73 445.352 368.577 450.964 362.965C456.576 357.353 459.729 349.741 459.729 341.804C459.729 333.867 456.576 326.255 450.964 320.643C445.352 315.031 437.74 311.878 429.803 311.878C421.866 311.878 414.254 315.031 408.642 320.643C403.029 326.255 399.876 333.867 399.876 341.804Z" fill="#434984"/>
<path d="M726.333 402.408H745.914V421.989H726.333V402.408Z" stroke="#434984" stroke-width="1.70714"/>
<path d="M211.749 733.85C211.749 740.623 214.44 747.119 219.23 751.908C224.019 756.698 230.515 759.388 237.288 759.388C244.062 759.388 250.558 756.698 255.347 751.908C260.136 747.119 262.827 740.623 262.827 733.85C262.827 727.076 260.136 720.58 255.347 715.791C250.558 711.001 244.062 708.311 237.288 708.311C230.515 708.311 224.019 711.001 219.23 715.791C214.44 720.58 211.749 727.076 211.749 733.85Z" fill="#747BB9"/>
<path d="M1380.75 226.965H1396.17V234.049H1380.75V226.965Z" stroke="#434984" stroke-width="1.70714"/>
<path d="M1048.16 852.359C1046.35 840.567 1042.23 829.248 1036.03 819.049C1029.84 808.85 1021.7 799.97 1012.08 792.917C1002.46 785.863 991.538 780.774 979.949 777.94C968.359 775.106 956.324 774.583 944.532 776.4C932.74 778.217 921.421 782.339 911.222 788.53C901.023 794.722 892.143 802.861 885.089 812.484C878.036 822.107 872.947 833.026 870.113 844.616C867.279 856.205 866.756 868.24 868.573 880.032L1048.16 852.359Z" stroke="#434984" stroke-width="1.70714"/>
<path d="M749.004 64.53C760.296 63.6743 770.786 58.3679 778.165 49.7782C785.545 41.1886 789.21 30.0192 788.354 18.7273C787.498 7.43545 782.192 -3.05403 773.602 -10.4335C765.013 -17.813 753.843 -21.478 742.551 -20.6223L749.004 64.53Z" fill="#747BB9"/>
<path d="M640.737 74.3632C630.242 81.1994 621.205 90.047 614.148 100.395C607.092 110.743 602.155 122.387 599.622 134.653C597.09 146.92 597.013 159.566 599.396 171.863C601.778 184.16 606.573 195.862 613.504 206.296C620.434 216.729 629.362 225.686 639.773 232.649C650.184 239.613 661.872 244.445 674.161 246.867C686.45 249.288 699.096 249.252 711.371 246.759C723.646 244.266 735.305 239.366 745.675 232.342L640.737 74.3632Z" stroke="#747BB9" stroke-width="1.70714"/>
<path d="M621.481 791.79H658.406V828.715H621.481V791.79Z" stroke="#747BB9" stroke-width="1.70714"/>
<path d="M-76.6383 134.54H15.5303V188.366H-76.6383V134.54Z" stroke="#434984" stroke-width="1.70714"/>
<path d="M200.926 284.427H242V297.777H200.926V284.427Z" stroke="#434984" stroke-width="1.70714"/>
<path d="M924.72 656.448H986.997V721.302H924.72V656.448Z" fill="#747BB9"/>
<path d="M372.238 624.729H399.876V718.929H372.238V624.729Z" fill="#747BB9"/>
<path d="M1116.26 162.298C1121.66 167.367 1128.01 171.313 1134.95 173.909C1141.89 176.504 1149.27 177.697 1156.67 177.418C1164.07 177.139 1171.34 175.393 1178.07 172.282C1184.79 169.172 1190.82 164.758 1195.83 159.296C1200.83 153.835 1204.7 147.435 1207.21 140.467C1209.72 133.5 1210.82 126.103 1210.45 118.706C1210.08 111.309 1208.25 104.059 1205.06 97.3759C1201.86 90.6931 1197.38 84.7104 1191.85 79.7748L1116.26 162.298Z" fill="#434984"/>
<path d="M954.271 611.021C965.262 610.656 976.073 608.131 986.088 603.588C996.102 599.046 1005.12 592.575 1012.64 584.546C1020.15 576.517 1026.01 567.086 1029.88 556.793C1033.75 546.499 1035.55 535.544 1035.19 524.554C1034.83 513.563 1032.3 502.752 1027.76 492.737C1023.21 482.722 1016.74 473.701 1008.72 466.187C1000.69 458.673 991.255 452.814 980.962 448.944C970.668 445.075 959.714 443.271 948.723 443.635L954.271 611.021Z" stroke="#434984" stroke-width="1.70714"/>
<path d="M-48.5387 59.2549H19.7299V117.093H-48.5387V59.2549Z" fill="#434984"/>
<path d="M23.5369 59.3232H55.9897V91.776H23.5369V59.3232Z" fill="#434984"/>
<path d="M1094.82 405.651C1094.82 415.53 1098.74 425.005 1105.73 431.991C1112.72 438.977 1122.19 442.901 1132.07 442.901C1141.95 442.901 1151.42 438.977 1158.41 431.991C1165.4 425.005 1169.32 415.53 1169.32 405.651C1169.32 395.772 1165.4 386.297 1158.41 379.312C1151.42 372.326 1141.95 368.401 1132.07 368.401C1122.19 368.401 1112.72 372.326 1105.73 379.312C1098.74 386.297 1094.82 395.772 1094.82 405.651Z" fill="#747BB9"/>
<path d="M764.249 766.063C761.766 764.332 758.967 763.108 756.011 762.459C753.054 761.81 749.999 761.75 747.02 762.282C744.04 762.814 741.195 763.927 738.646 765.559C736.097 767.19 733.894 769.308 732.163 771.791C730.433 774.273 729.208 777.073 728.559 780.029C727.91 782.985 727.85 786.04 728.382 789.02C728.914 791.999 730.027 794.845 731.659 797.394C733.29 799.943 735.408 802.146 737.891 803.876L764.249 766.063Z" stroke="#434984" stroke-width="1.70714"/>
<path d="M63.3645 873.204C63.3645 878.791 65.584 884.149 69.5346 888.1C73.4853 892.05 78.8436 894.27 84.4307 894.27C90.0177 894.27 95.376 892.05 99.3266 888.1C103.277 884.149 105.497 878.791 105.497 873.204C105.497 867.616 103.277 862.258 99.3266 858.308C95.376 854.357 90.0177 852.137 84.4307 852.137C78.8436 852.137 73.4853 854.357 69.5346 858.308C65.584 862.258 63.3645 867.616 63.3645 873.204Z" stroke="#747BB9" stroke-width="1.70714"/>
<path d="M393.56 106.031H395.182V107.652H393.56V106.031Z" stroke="#747BB9" stroke-width="1.70714"/>
<path d="M1216.03 156.579H1293.34V159.823H1216.03V156.579Z" stroke="#747BB9" stroke-width="1.70714"/>
<path d="M190.649 393.991C190.649 408.077 196.245 421.585 206.204 431.545C216.164 441.505 229.673 447.101 243.758 447.101C257.844 447.101 271.352 441.505 281.312 431.545C291.272 421.585 296.868 408.077 296.868 393.991C296.868 379.906 291.272 366.398 281.312 356.438C271.352 346.478 257.844 340.882 243.758 340.882C229.673 340.882 216.164 346.478 206.204 356.438C196.245 366.398 190.649 379.906 190.649 393.991Z" fill="#747BB9"/>
</g>
</g>
<defs>
<clipPath id="clip0_4_338">
<rect width="2458.29" height="956" fill="white" transform="translate(-720 884)"/>
</clipPath>
<clipPath id="clip1_4_338">
<rect width="2458.29" height="956" fill="white" transform="translate(-475)"/>
</clipPath>
</defs>
</svg>
