<svg width="26" height="26" viewBox="0 0 26 26" fill="none" xmlns="http://www.w3.org/2000/svg">
<g clip-path="url(#clip0_3_51)">
<path d="M10.9092 24.375C12.0519 24.375 12.9783 23.4486 12.9783 22.3058C12.9783 21.1631 12.0519 20.2367 10.9092 20.2367C9.76639 20.2367 8.84 21.1631 8.84 22.3058C8.84 23.4486 9.76639 24.375 10.9092 24.375Z" stroke="#14130A" stroke-width="2" stroke-miterlimit="10"/>
<path d="M20.215 24.375C21.3577 24.375 22.2841 23.4486 22.2841 22.3058C22.2841 21.1631 21.3577 20.2367 20.215 20.2367C19.0722 20.2367 18.1458 21.1631 18.1458 22.3058C18.1458 23.4486 19.0722 24.375 20.215 24.375Z" stroke="#14130A" stroke-width="2" stroke-miterlimit="10"/>
<path d="M0.563324 1.625H3.44499C4.1058 1.62384 4.74979 1.83325 5.28353 2.22285C5.81727 2.61244 6.21301 3.16196 6.41332 3.79167L9.86916 15.0692H9.35999C8.6733 15.0692 8.01474 15.342 7.52917 15.8275C7.04361 16.3131 6.77082 16.9716 6.77082 17.6583C6.77369 18.3431 7.04774 18.9989 7.53299 19.4822C8.01824 19.9654 8.67517 20.2367 9.35999 20.2367H20.1933" stroke="#14130A" stroke-width="2" stroke-miterlimit="10"/>
<path d="M7.81082 5.76334H24.3533V7.8325L22.2842 15.0692H9.86915" stroke="#14130A" stroke-width="2" stroke-miterlimit="10"/>
</g>
<defs>
<clipPath id="clip0_3_51">
<rect width="26" height="26" fill="white"/>
</clipPath>
</defs>
</svg>
